<svg id="Calque_1" data-name="Calque 1" xmlns="http://www.w3.org/2000/svg" viewBox="0 0 230.02 230.02"><defs><style>.cls-1{fill:#728680;}.cls-2{fill:#fff;}</style></defs><title>insta</title><circle class="cls-1" cx="164.82" cy="150" r="115.01" transform="translate(-59.54 253.57) rotate(-80.75)"/><path class="cls-2" d="M226,119.89a32.3,32.3,0,0,0-9.85-20.8c-6.26-6-13.93-8.62-22.34-9.07-14.31-.78-48.32-1.27-60.25.68-13.65,2.22-22.59,10.18-26.36,23.66-2.91,10.36-2.33,58.14-.63,68.39,2.31,14,10.59,23,24.47,26.57,9.61,2.48,56.84,2.16,67.44.44,14-2.26,23-10.5,26.69-24.36C227.91,174.76,226.94,129.49,226,119.89Zm-11.21,60.87c-1.63,10.65-8.69,17.24-19.39,18.41-9.83,1.07-53.72,1.67-62.83-.88-8.72-2.44-13.71-8.43-15.16-17.21-1.38-8.39-1.72-50.27,0-61.48,1.6-10.55,8.66-17.14,19.3-18.33,10.8-1.21,49.63-1.34,60,.25,10.62,1.63,17.2,8.7,18.37,19.42C216.09,130.94,216.4,170,214.75,180.76ZM166.05,119a31.24,31.24,0,1,0,31.22,31.25A31.24,31.24,0,0,0,166.05,119Zm-.22,51.42a20.21,20.21,0,1,1,20.38-20A20.21,20.21,0,0,1,165.83,170.42Zm40-52.6a7.32,7.32,0,1,1-7.3-7.34A7.31,7.31,0,0,1,205.82,117.82Z" transform="translate(-49.81 -34.99)"/></svg>