<svg id="Calque_1" data-name="Calque 1" xmlns="http://www.w3.org/2000/svg" viewBox="0 0 240.03 240.77"><defs><style>.cls-1{fill:#fff;}.cls-2{fill:#728680;}</style></defs><title>medium</title><circle class="cls-1" cx="120.03" cy="120" r="120"/><path class="cls-2" d="M141.64,30.92A120.38,120.38,0,0,0,73.06,58.54,173.83,173.83,0,0,0,57.83,73.78a120.11,120.11,0,0,0,.64,154.6,167.49,167.49,0,0,0,12.14,12.35A120,120,0,0,0,240,71.33a169.55,169.55,0,0,0-12.48-12.28,119.87,119.87,0,0,0-65.27-27.79,183.15,183.15,0,0,0-20.57-.34Zm-1.48,95c4.8,18,8.78,32.69,8.85,32.76s3.56-12.74,7.77-28.47,8.15-30.5,8.78-32.82l1.13-4.23h54.06v16.66h-2.56a10,10,0,0,0-3.91.51,8,8,0,0,0-4.08,3.78l-.6,1.23v68.84l.52,1.13a8.16,8.16,0,0,0,3.65,3.8c1.08.53,1.76.66,4.14.77l2.84.14v16.58H169.56V189.91l5.08-.06,5.08-.06.05-36.51c0-23,0-36.32-.18-36s-5.64,19.89-12.25,43.61-12.18,43.7-12.38,44.41l-.36,1.28h-9.79c-5.39,0-9.78,0-9.78-.09s-24.72-88.9-24.84-89.21c0-.14-.11,16.15-.12,36.2l0,36.44h10v16.66H77.47V189.91H79a14.65,14.65,0,0,0,5.58-1,9.14,9.14,0,0,0,3.53-4.1c.35-1,.39-4.69.39-35.22V115.55l-.69-1.47a7.54,7.54,0,0,0-3.54-3.6c-.85-.45-1.53-.56-3.91-.64l-2.88-.1V93.13l27,.06,27,.06,8.73,32.64Z" transform="translate(-29.97 -30)"/></svg>